<svg width="19" height="20" viewBox="0 0 19 20" fill="none" xmlns="http://www.w3.org/2000/svg">
<path d="M15.6071 3.21429L3.39286 3.21429C2.85296 3.21429 2.33516 3.42877 1.95339 3.81054C1.57162 4.19231 1.35715 4.7101 1.35715 5.25001L1.35715 14.75C1.35715 15.2899 1.57162 15.8077 1.95339 16.1895C2.33516 16.5712 2.85296 16.7857 3.39286 16.7857L15.6071 16.7857C16.1471 16.7857 16.6648 16.5712 17.0466 16.1895C17.4284 15.8077 17.6429 15.2899 17.6429 14.75L17.6429 5.25001C17.6429 4.7101 17.4284 4.19231 17.0466 3.81054C16.6648 3.42877 16.1471 3.21429 15.6071 3.21429ZM15.4036 6.47144L9.975 11.2214C9.8272 11.2976 9.66575 11.3437 9.5 11.3572C9.33426 11.3437 9.17281 11.2976 9.025 11.2214L3.59643 6.47144C3.46146 6.35446 3.37848 6.18865 3.36575 6.01049C3.35303 5.83233 3.4116 5.65641 3.52858 5.52144C3.64556 5.38646 3.81136 5.30348 3.98952 5.29076C4.16768 5.27803 4.3436 5.3366 4.47858 5.45358L9.43215 9.79644L14.3857 5.45358C14.4517 5.39389 14.5291 5.34816 14.6132 5.31916C14.6973 5.29015 14.7864 5.27847 14.8752 5.28481C14.964 5.29115 15.0505 5.31538 15.1296 5.35605C15.2088 5.39671 15.2789 5.45297 15.3357 5.52144C15.4109 5.57344 15.4734 5.64166 15.5187 5.72105C15.564 5.80044 15.5909 5.88899 15.5974 5.98017C15.6039 6.07134 15.5899 6.16281 15.5564 6.24784C15.5228 6.33287 15.4706 6.40928 15.4036 6.47144Z" fill="white"/>
</svg>
